<svg width="256" height="256" viewBox="0 0 256 256" fill="none" xmlns="http://www.w3.org/2000/svg">
<g clip-path="url(#clip0_148_3950)">
<path d="M0 65.5493C0 62.9819 3.01524 61.6007 4.9594 63.2775L63.886 114.102C64.5468 114.672 64.9267 115.502 64.9267 116.374V236C64.9267 237.657 63.5835 239 61.9267 239H3C1.34315 239 0 237.657 0 236V65.5493Z" fill="#1D1D1F" fill-opacity="0.93"/>
<path d="M254.806 63.6997C256.451 61.729 255.024 58.7347 252.459 58.7737L174.685 59.9549C173.812 59.9681 172.989 60.3612 172.429 61.0314L95.8207 152.833C94.7591 154.105 94.9288 155.998 96.1997 157.061L141.423 194.886C142.694 195.949 144.585 195.779 145.647 194.507L254.806 63.6997Z" fill="#1D1D1F" fill-opacity="0.93"/>
<circle cx="223.286" cy="206.5" r="32.5" fill="#1D1D1F" fill-opacity="0.93"/>
</g>
<defs>
<clipPath id="clip0_148_3950">
<rect width="256" height="256" fill="white"/>
</clipPath>
</defs>
</svg>
